<?xml version="1.0" encoding="utf-8"?>
<!-- Generator: Adobe Illustrator 26.0.0, SVG Export Plug-In . SVG Version: 6.00 Build 0)  -->
<svg version="1.1" id="Layer_1" xmlns="http://www.w3.org/2000/svg" xmlns:xlink="http://www.w3.org/1999/xlink" x="0px" y="0px"
	 viewBox="0 0 20 18.1" style="enable-background:new 0 0 20 18.1;" xml:space="preserve">
<style type="text/css">
	.st0{fill:none;}
	.st1{fill:#FADB14;}
	.st2{fill:#9254DE;}
</style>
<rect id="backgroundrect" y="0" class="st0" width="20" height="20"/>
<g>
	<g id="svg_1">
		<polygon id="svg_2" class="st1" points="15.1,17.7 5,17.7 0,9 5,0.3 15.1,0.3 20.1,9 		"/>
		<g id="svg_3">
			<path id="svg_4" class="st2" d="M13.4,3.9l-1.2,5c1.4-1.2,2.5-1.8,3-1.8c0.1,0,0.3,0.1,0.4,0.2c0.1,0.1,0.2,0.3,0.2,0.5
				s-0.2,0.4-0.5,0.6c-1.6,0.9-2.8,1.5-3.4,2c-0.5,2.3-1.1,3.8-1.7,4.5c-0.8,0.9-1.7,1.4-2.6,1.4c-1.2,0-1.7-0.5-1.7-1.4
				c0-0.3,0-0.5,0.1-0.7c0-0.1,0.1-0.2,0.1-0.3s0.1-0.2,0.2-0.3s0.1-0.2,0.2-0.3c0-0.1,0.1-0.2,0.2-0.3S7,12.8,7,12.7
				s0.1-0.1,0.2-0.2c0.1-0.1,0.3-0.3,0.5-0.5s0.6-0.6,1.2-1c0.2-0.2,0.5-0.4,0.9-0.7s0.6-0.5,0.8-0.6l0.2-1C10.6,9,10.3,9.2,10,9.4
				C9.6,9.6,9.3,9.7,8.9,9.7c-0.6,0-1.1-0.2-1.4-0.6C7.2,8.6,7,8.1,7,7.6c0-1.3,0.4-2.4,1.3-3.4s1.9-1.5,3-1.5h0.1
				c0.2,0,0.4,0.1,0.5,0.2s0.2,0.2,0.2,0.3c0.1-0.1,0.3-0.1,0.5-0.1s0.4,0.1,0.5,0.2C13.2,3.4,13.3,3.6,13.4,3.9L13.4,3.9z
				 M7.6,15.1c0.7,0,1.3-0.5,1.9-1.4c0.5-0.9,0.9-1.9,1.1-2.8c-0.1,0.1-0.4,0.3-0.7,0.6s-0.5,0.4-0.7,0.6c-0.2,0.1-0.4,0.3-0.6,0.5
				C8.4,12.8,8.2,13,8,13.1c-0.1,0.1-0.3,0.4-0.5,0.6s-0.3,0.6-0.3,0.9C7.3,14.9,7.4,15.1,7.6,15.1z M9.4,8.2c0.8,0,1.4-0.7,1.8-2
				l0.6-2.1c-0.8,0-1.6,0.4-2.2,1.1C9,5.9,8.7,6.6,8.7,7.3S8.9,8.2,9.4,8.2z"/>
		</g>
	</g>
	<g id="svg_5">
	</g>
	<g id="svg_6">
	</g>
	<g id="svg_7">
	</g>
	<g id="svg_8">
	</g>
	<g id="svg_9">
	</g>
	<g id="svg_10">
	</g>
</g>
</svg>
