<?xml version="1.0" encoding="utf-8"?>
<!--
  - Copyright (c) 2022-2023. Glowbuzzer. All rights reserved
  -->

<!-- Generator: Adobe Illustrator 26.0.0, SVG Export Plug-In . SVG Version: 6.00 Build 0)  -->
<svg version="1.1" id="Layer_1" xmlns="http://www.w3.org/2000/svg" x="0px"
     y="0px"
     viewBox="0 0 20.2 17.4" style="enable-background:new 0 0 20.2 17.4;" xml:space="preserve">
<style type="text/css">
	.st0{fill:none;}
	.st1{fill:#FADB14;}
	.st2{fill:#9254DE;}
</style>
    <rect id="backgroundrect" y="-0.3" class="st0" width="20" height="20"/>
    <g>
	<g id="svg_1">
		<polygon id="svg_2" class="st1" points="15.1,17.4 5,17.4 0,8.7 5,0 15.1,0 20.1,8.7 		"/>
        <g id="svg_3">
			<path id="svg_4" class="st2" d="M13.4,3.6l-1.2,5c1.4-1.2,2.5-1.8,3-1.8c0.1,0,0.3,0.1,0.4,0.2c0.1,0.1,0.2,0.3,0.2,0.5
				s-0.2,0.4-0.5,0.6c-1.6,0.9-2.8,1.5-3.4,2c-0.5,2.3-1.1,3.8-1.7,4.5C9.4,15.5,8.5,16,7.6,16c-1.2,0-1.7-0.5-1.7-1.4
				c0-0.3,0-0.5,0.1-0.7c0-0.1,0.1-0.2,0.1-0.3s0.1-0.2,0.2-0.3s0.1-0.2,0.2-0.3c0-0.1,0.1-0.2,0.2-0.3S7,12.5,7,12.4
				s0.1-0.1,0.2-0.2c0.1-0.1,0.3-0.3,0.5-0.5s0.6-0.6,1.2-1c0.2-0.2,0.5-0.4,0.9-0.7s0.6-0.5,0.8-0.6l0.2-1
				c-0.2,0.3-0.5,0.5-0.8,0.7C9.6,9.3,9.3,9.4,8.9,9.4c-0.6,0-1.1-0.2-1.4-0.6C7.2,8.3,7,7.8,7,7.3C7,6,7.4,4.9,8.3,3.9
				s1.9-1.5,3-1.5h0.1c0.2,0,0.4,0.1,0.5,0.2s0.2,0.2,0.2,0.3c0.1-0.1,0.3-0.1,0.5-0.1S13,2.9,13.1,3C13.2,3.1,13.3,3.3,13.4,3.6
				L13.4,3.6z M7.6,14.8c0.7,0,1.3-0.5,1.9-1.4c0.5-0.9,0.9-1.9,1.1-2.8c-0.1,0.1-0.4,0.3-0.7,0.6s-0.5,0.4-0.7,0.6
				c-0.2,0.1-0.4,0.3-0.6,0.5c-0.2,0.2-0.4,0.4-0.6,0.5c-0.1,0.1-0.3,0.4-0.5,0.6S7.2,14,7.2,14.3C7.3,14.6,7.4,14.8,7.6,14.8z
				 M9.4,7.9c0.8,0,1.4-0.7,1.8-2l0.6-2.1c-0.8,0-1.6,0.4-2.2,1.1C9,5.6,8.7,6.3,8.7,7S8.9,7.9,9.4,7.9z"/>
		</g>
	</g>
        <g id="svg_5">
	</g>
        <g id="svg_6">
	</g>
        <g id="svg_7">
	</g>
        <g id="svg_8">
	</g>
        <g id="svg_9">
	</g>
        <g id="svg_10">
	</g>
</g>
</svg>
