<?xml version="1.0" encoding="utf-8"?>
<!-- Generator: Adobe Illustrator 26.0.0, SVG Export Plug-In . SVG Version: 6.00 Build 0)  -->
<svg version="1.1" id="Layer_1" xmlns="http://www.w3.org/2000/svg" xmlns:xlink="http://www.w3.org/1999/xlink" x="0px" y="0px"
	 viewBox="0 0 149.4 43.3" style="enable-background:new 0 0 149.4 43.3;" xml:space="preserve">
<style type="text/css">
	.st0{fill:#D4B106;}
	.st1{fill:#FFEC3D;}
	.st2{fill:#FADB14;}
	.st3{fill:#9254DE;}
</style>
<g>
	<polygon class="st0" points="33.1,41.4 23,41.4 18,32.7 23,23.9 33.1,23.9 38.1,32.7 	"/>
	<polygon class="st1" points="33.1,20.4 23,20.4 18,11.7 23,2.9 33.1,2.9 38.1,11.7 	"/>
	<polygon class="st2" points="15.1,31.4 5,31.4 0,22.7 5,13.9 15.1,13.9 20.1,22.7 	"/>
	<g>
		<path class="st3" d="M55.2,17.4l-1.7,7.3c2.1-1.7,3.6-2.6,4.5-2.6c0.2,0,0.4,0.1,0.6,0.3c0.2,0.2,0.3,0.5,0.3,0.8
			s-0.2,0.6-0.7,0.8c-2.4,1.3-4.1,2.3-5,2.9c-0.7,3.4-1.6,5.6-2.5,6.7c-1.2,1.3-2.4,2-3.8,2c-1.7,0-2.6-0.7-2.6-2.1
			c0-0.4,0.1-0.7,0.2-1c0.1-0.2,0.1-0.3,0.2-0.4c0.1-0.1,0.1-0.3,0.2-0.5c0.1-0.2,0.2-0.3,0.3-0.4s0.2-0.2,0.3-0.4s0.2-0.3,0.3-0.4
			s0.2-0.2,0.3-0.4s0.4-0.4,0.7-0.8s0.9-0.9,1.8-1.6c0.3-0.3,0.8-0.6,1.3-1s1-0.7,1.2-0.9l0.3-1.5c-0.3,0.4-0.7,0.7-1.2,1
			c-0.6,0.3-1.1,0.4-1.6,0.4c-0.9,0-1.6-0.3-2.1-0.9s-0.8-1.3-0.8-2.1c0-1.9,0.7-3.6,2-5s2.8-2.2,4.5-2.2h0.1c0.4,0,0.6,0.1,0.8,0.2
			c0.2,0.2,0.3,0.3,0.3,0.5c0.2-0.1,0.4-0.1,0.7-0.1s0.5,0.1,0.8,0.3c0.2,0.2,0.3,0.4,0.3,0.7L55.2,17.4z M46.7,33.9
			c1.1,0,2-0.7,2.8-2.1s1.3-2.8,1.6-4.1c-0.2,0.2-0.5,0.5-1,0.8c-0.4,0.4-0.8,0.7-1,0.9c-0.2,0.2-0.5,0.5-0.9,0.8s-0.6,0.6-0.8,0.8
			c-0.2,0.2-0.4,0.5-0.7,0.9c-0.3,0.4-0.4,0.8-0.4,1.3C46.3,33.7,46.4,33.9,46.7,33.9z M49.4,23.8c1.2,0,2.1-1,2.7-3l0.8-3.2
			c-1.2,0-2.3,0.5-3.2,1.6s-1.4,2.1-1.4,3.1S48.6,23.8,49.4,23.8z"/>
		<path class="st3" d="M60.4,25.9c-1,0-1.8-0.4-2.4-1.3s-0.8-2-0.8-3.4c0-0.4,0-0.8,0-1c0.3-3,1.1-6.1,2.4-9.4C60.2,9.3,61,8,62,7
			s2-1.5,3-1.5c0.6,0,1.1,0.2,1.5,0.6S67,7,67,7.6v0.2c-0.2,2.1-1.1,4.3-2.5,6.5c-1.5,2.3-3.1,4.1-4.9,5.5c-0.1,0.7-0.1,1.2-0.1,1.5
			c0,1.7,0.5,2.5,1.5,2.5s2.2-0.7,3.4-2.2c0.1-0.1,0.3-0.2,0.5-0.2s0.4,0.1,0.6,0.3c0.2,0.2,0.3,0.4,0.3,0.7s-0.1,0.5-0.4,0.8
			C63.9,25,62.2,25.9,60.4,25.9z M64.2,8c-0.9,0-1.7,1.1-2.6,3.3c-0.9,2.2-1.5,4.3-1.8,6.3c1.2-1.4,2.3-2.9,3.4-4.6
			c1-1.7,1.5-3.2,1.6-4.3C64.7,8.2,64.6,8,64.2,8z"/>
		<path class="st3" d="M67.3,25.9c-1,0-1.9-0.4-2.5-1.1s-1-1.7-1-2.8c0-1.7,0.6-3.2,1.7-4.5s2.4-2,3.9-2c0.9,0,1.6,0.3,2.2,0.9
			c0.6,0.6,0.9,1.4,0.9,2.4c0,0.2,0,0.5-0.1,1c1.3-0.2,2.7-1.1,4-2.6c0.1-0.1,0.2-0.1,0.3-0.1c0.1,0,0.3,0.1,0.4,0.3
			c0.1,0.2,0.2,0.4,0.2,0.6s0,0.3-0.1,0.4c-1.4,1.7-3.1,2.9-5.1,3.4C71.3,24.6,69.7,25.9,67.3,25.9z M67.8,24c0.5,0,1-0.3,1.5-0.9
			s0.7-1.2,0.8-1.8C69.3,21,69,20.5,69,20s0.3-1,0.8-1.6c0-0.3-0.1-0.5-0.2-0.6s-0.3-0.2-0.5-0.2c-0.8,0-1.5,0.5-2,1.4
			c-0.6,0.9-0.8,1.9-0.8,2.9C66.2,23.3,66.7,24,67.8,24z"/>
		<path class="st3" d="M90.5,20.5c-0.8,1.9-1.9,3.3-3.2,4.4c-1,0.8-2.1,1.3-3.2,1.3c-1.4,0-2.3-0.8-2.6-2.5
			c-1.1,1.7-2.3,2.5-3.6,2.5c-1,0-1.8-0.3-2.4-1s-0.9-1.6-0.9-2.8c0-1.2,0.3-2.3,0.8-3.3c0.2-0.5,0.5-0.9,0.7-1.2
			c0.2-0.3,0.4-0.7,0.7-1c0.2-0.4,0.4-0.6,0.4-0.6c0.4-0.5,0.7-0.8,1.1-0.8s0.7,0.1,0.9,0.3c0.2,0.2,0.4,0.4,0.4,0.5s0,0.2-0.1,0.3
			c-0.2,0.3-0.4,0.5-0.5,0.7s-0.3,0.4-0.4,0.6c-1,1.4-1.5,2.9-1.5,4.3c0,1.3,0.4,2,1.2,2c1,0,2.2-1.4,3.4-4.2l0.5-1.1
			c0.5-1.8,1-2.8,1.6-2.8h0.1c0.7,0,1.1,0.2,1.1,0.7c0,0.3-0.2,1-0.7,2c-0.6,1.3-1,2.5-1,3.6c0,1.2,0.4,1.9,1.3,1.9
			c0.7,0,1.4-0.3,2.1-1s1.3-1.5,1.7-2.6c0.1-0.1,0.2-0.3,0.3-0.6c-0.7-0.4-1.3-0.9-1.8-1.5c-0.4-0.6-0.6-1.3-0.6-2
			c0-0.7,0.2-1.3,0.7-1.8s1.2-0.7,2.1-0.7c0.7,0,1.3,0.3,1.8,0.9c0.4,0.5,0.7,1.2,0.7,2s-0.1,1.5-0.2,2c0.9,0,1.9-0.2,3-0.6
			c0.2-0.1,0.3-0.2,0.5-0.2s0.3,0.1,0.5,0.3c0.1,0.2,0.2,0.4,0.2,0.7s-0.2,0.5-0.5,0.6c-1.4,0.6-2.6,0.9-3.8,0.9L90.5,20.5z
			 M87.9,16.8c0,0.7,0.4,1.3,1.1,1.7c0.2-0.7,0.4-1.3,0.4-1.7c0-0.7-0.2-1.1-0.7-1.1c-0.2,0-0.4,0.1-0.6,0.3
			C88,16.3,87.9,16.5,87.9,16.8z"/>
		<path class="st3" d="M102,8.2c-0.1,1.2-0.7,2.7-1.7,4.5s-2,3.1-3.1,3.9l0.3-0.2c0.6-0.4,1.3-0.6,2.2-0.6c0.5,0,0.9,0.3,1.4,0.8
			c0.4,0.5,0.7,1.2,0.7,2.1c0,0.6,0,1.1-0.1,1.6c0.6-0.1,1.2-0.3,1.9-0.8s1.1-0.7,1.1-0.7c0.5,0,0.7,0.3,0.7,0.8
			c0,0.3-0.1,0.6-0.4,0.8c-0.8,0.8-2.1,1.3-3.7,1.5c-0.8,2.7-2.5,4-4.9,4c-1.3,0-2.3-0.4-3.1-1.2c-0.8-0.8-1.2-1.8-1.2-3.1v-0.2
			c0.1-2.3,0.5-4.7,1.1-7.1c0.7-2.4,1.6-4.5,2.8-6.2c1.2-1.7,2.5-2.6,4-2.6c0.7,0,1.2,0.2,1.5,0.7c0.3,0.4,0.5,1,0.5,1.7L102,8.2z
			 M99.2,8c-0.6,0-1.2,0.6-1.9,1.9c-0.7,1.3-1.2,2.6-1.7,4.1c-0.4,1.4-0.7,2.7-0.8,3.6c0.5-0.7,1-1.3,1.3-1.7
			c0.1-0.2,0.4-0.5,0.7-0.9c0.3-0.4,0.6-0.8,0.7-1s0.4-0.6,0.6-1c1-1.5,1.5-2.9,1.5-4V8.7C99.7,8.2,99.5,8,99.2,8z M96.8,23.9
			c1.1,0,1.8-0.7,2.4-2.2c-0.6-0.2-0.9-0.7-0.9-1.4c0-0.3,0.1-0.6,0.4-0.8c0.2-0.3,0.5-0.4,0.9-0.5v-0.1c0-0.4-0.1-0.8-0.3-1
			c-0.2-0.2-0.6-0.3-1.1-0.3c-0.9,0-1.6,0.4-2.2,1.2c-0.6,0.8-0.9,1.7-0.9,2.7C94.9,23.1,95.5,23.9,96.8,23.9z"/>
		<path class="st3" d="M113.1,16.6c-0.7,2.2-1.2,4.2-1.4,6.2v0.4c0,0.5,0.1,0.7,0.4,0.7c0.7,0,1.5-0.6,2.6-1.8
			c0.3-0.2,0.5-0.3,0.7-0.3s0.4,0.1,0.6,0.4c0.2,0.2,0.4,0.5,0.4,0.7c0,0.5-0.6,1.1-1.9,1.9s-2.3,1.2-3.1,1.2
			c-1.2,0-1.8-0.6-1.9-1.8l0.1-1c-0.2,0.6-0.7,1.3-1.3,1.9S106.9,26,106,26s-1.6-0.3-2-0.9s-0.7-1.4-0.7-2.3c0-1.2,0.2-2.5,0.6-3.9
			s0.8-2.2,1-2.7c0.2-0.4,0.6-0.6,1-0.6s0.7,0.1,0.9,0.2c0.2,0.2,0.3,0.3,0.3,0.4s-0.2,0.9-0.7,2.3s-0.8,2.6-0.9,3.7v0.2
			c0,1,0.4,1.5,1.1,1.5c0.6,0,1.1-0.3,1.7-1s1-1.5,1.4-2.7l0.8-3.1c0.2-0.7,0.4-1.1,0.6-1.3s0.5-0.3,0.8-0.3s0.6,0.1,0.8,0.3
			c0.2,0.2,0.3,0.4,0.3,0.6L113.1,16.6z"/>
		<path class="st3" d="M120.4,16c0.3,0,0.6,0.1,0.8,0.3c0.2,0.2,0.3,0.4,0.3,0.6c0,0.7-0.1,1.3-0.4,1.6c-0.3,0.3-2,1.9-5.3,4.8
			c0,0.2,0.1,0.5,0.4,0.6c0.3,0.2,0.6,0.2,1.1,0.2c1.3,0,3.1-0.6,5.2-1.9c0,0,0.1,0,0.2,0s0.2,0.1,0.3,0.3c0.1,0.2,0.1,0.4,0.1,0.7
			s-0.1,0.5-0.3,0.7c-1.9,1.4-3.9,2.2-5.8,2.2c-1,0-1.8-0.2-2.4-0.6s-0.9-1-0.9-1.7s0.4-1.4,1.2-2.1l4.6-3.9
			c-2.1,0.2-3.6,0.2-4.5,0.2c-0.1,0-0.2-0.1-0.4-0.4c-0.1-0.2-0.2-0.5-0.2-0.8c0-0.5,0.3-0.8,0.8-0.8L120.4,16z"/>
		<path class="st3" d="M127.7,16c0.3,0,0.6,0.1,0.8,0.3c0.2,0.2,0.3,0.4,0.3,0.6c0,0.7-0.1,1.3-0.4,1.6c-0.3,0.3-2,1.9-5.3,4.8
			c0,0.2,0.1,0.5,0.4,0.6c0.3,0.2,0.6,0.2,1.1,0.2c1.3,0,3.1-0.6,5.2-1.9c0,0,0.1,0,0.2,0c0.1,0,0.2,0.1,0.3,0.3
			c0.1,0.2,0.1,0.4,0.1,0.7s-0.1,0.5-0.3,0.7c-1.9,1.4-3.9,2.2-5.8,2.2c-1,0-1.8-0.2-2.4-0.6s-0.9-1-0.9-1.7s0.4-1.4,1.2-2.1
			l4.6-3.9c-2.1,0.2-3.6,0.2-4.5,0.2c-0.1,0-0.2-0.1-0.4-0.4c-0.1-0.2-0.2-0.5-0.2-0.8c0-0.5,0.3-0.8,0.8-0.8L127.7,16z"/>
		<path class="st3" d="M128.8,21.8c0-1.5,0.5-2.9,1.5-4.3c1-1.3,2.2-2,3.6-2c0.8,0,1.5,0.2,2.1,0.7s0.8,1.1,0.8,1.9
			c0,1.1-0.5,2.1-1.4,2.8s-2.3,1.3-4.2,1.6c0.3,0.9,1,1.3,2.2,1.3c1.7,0,3.2-0.7,4.7-2.1c0.1-0.1,0.2-0.1,0.4-0.1s0.3,0.1,0.5,0.2
			s0.2,0.3,0.2,0.5s-0.1,0.4-0.2,0.6c-0.5,0.7-1.3,1.4-2.4,2c-1.1,0.6-2.3,0.9-3.5,0.9s-2.2-0.4-3.1-1.1
			C129.3,24.2,128.8,23.2,128.8,21.8z M134,17.6c-0.7,0-1.3,0.4-1.9,1.2c-0.6,0.8-0.9,1.6-0.9,2.5c2.6-0.9,3.9-1.8,3.9-2.8
			C135,17.9,134.7,17.6,134,17.6z"/>
		<path class="st3" d="M140.3,21.9c0.4-1.2,1.1-2.5,2.1-4s1.9-2.3,2.5-2.3c0.9,0,1.4,0.4,1.4,1.1c0,0.5-0.1,1-0.3,1.6
			s-0.3,0.9-0.3,1.1c0,0.3,0.2,0.5,0.7,0.5s1.2-0.3,2.2-0.9c0,0,0.1,0,0.2,0s0.3,0.1,0.5,0.3s0.3,0.4,0.3,0.6s0,0.3-0.1,0.4
			c-1.2,1.1-2.4,1.7-3.6,1.7c-1.4,0-2.1-0.6-2.1-1.8c0,0,0.2-0.7,0.5-2c0,0-0.2,0.2-0.5,0.7c-1,1.6-1.9,3.7-2.9,6.2
			c-0.3,0.5-0.7,0.8-1.3,0.8c-0.8,0-1.3-0.7-1.3-2v-0.2c0-2.2,0.3-4.4,1-6.5c0.3-0.9,0.8-1.4,1.5-1.4c0.3,0,0.5,0.1,0.7,0.2
			c0.2,0.2,0.2,0.4,0.2,0.6L140.3,21.9z"/>
	</g>
</g>
</svg>
